<svg id="Layer_1" enable-background="new 0 0 68 68" height="512" viewBox="0 0 68 68" width="512" xmlns="http://www.w3.org/2000/svg"><g><g><g><circle cx="34" cy="34" fill="#0fe1c2" r="32"/></g></g><g><g><path d="m61.1400146 17.039978c-5.6600341 9.0300293-15.7000122 15.0300293-27.1400146 15.0300293s-21.4799805-6-27.1400146-15.0300293c5.6500244-9.0299682 15.7000122-15.039978 27.1400146-15.039978s21.4899902 6.0100098 27.1400146 15.039978z" fill="#66fade"/></g></g><g><g><g><path d="m49.9721565 13.7740822v38.4518356c0 .4101944-.3223114.7324142-.7324181.7324142h-30.4794788c-.4101963 0-.7324162-.3222198-.7324162-.7324142v-30.6150207h7.8368149c.4101963 0 .7324162-.3222198.7324162-.7324162v-7.8368139h22.642664c.4101066 0 .732418.3222198.732418.7324152z" fill="#fff"/></g></g><g><g><path d="m26.5970745 13.041667v7.8368139c0 .4101963-.3222198.7324162-.7324162.7324162h-7.8368149z" fill="#0f9be8"/></g></g></g><g><g><g><g><path d="m38.7447205 19.8316345c0 .5739574-.2044182 1.1321278-.5739326 1.5723972l.0235863.0393009c.3601151.6000729.5503464 1.2867489.5503464 1.9865856v2.140955c0 .4717484-.2987595.8884087-.7468948 1.0378361h-8.152874c-.4638557-.2398338-.7547436-.7194023-.7547436-1.2422543v-2.2288418c0-2.0342522 1.649086-3.6833382 3.6833363-3.6833382h1.9536934c.6211014 0 1.2343369-.1493797 1.7846603-.4323997l.8428421-.4397602c.1102104-.0575047.242115.0224533.242115.1467628v.5473499h.9665222c.1001549 0 .1813431.081192.1813431.181345v.3740617z" fill="#a63914"/></g></g><g><g><path d="m42.4398384 37.9967804v3.8556671c0 .2108574-.1709328.3817902-.3817863.3817902h-16.1161042c-.2108555 0-.3817883-.1709328-.3817883-.3817902v-3.8556671c0-2.9797211 2.1699162-5.4483948 5.0198841-5.9082909.0039349 0 .0117817 0 .0157166-.0039368.3105621-.0432358.6211033-.0746651.947382-.0746651h4.921587c.318409 0 .6329079.0314293.9395103.0746651.0078697 0 .0157394.0039368.0235863.0039368 2.8421212.4638291 5.0120125 2.9285698 5.0120125 5.9082909z" fill="#313b5a"/></g></g><g><g><path d="m39.1847763 26.6759205v.0000019c0 .562048-.4556313 1.0176773-1.0176773 1.0176773h-.16782v-2.0353584h.16782c.5620461 0 1.0176773.4556293 1.0176773 1.0176792z" fill="#ffc0a4"/></g></g><g><g><path d="m38.2376099 25.6612778v2.0284538c-.0235863.0038872-.0471725.0038872-.070755.0038872h-.1690292v-2.036274h.1690292c.0235824 0 .0471687 0 .070755.003933z" fill="#ffa87a"/></g></g><g><g><path d="m28.6579571 26.6759205v.0000019c0 .562048.4556293 1.0176773 1.0176792 1.0176773h.16782v-2.0353584h-.16782c-.5620499 0-1.0176792.4556293-1.0176792 1.0176792z" fill="#ffc0a4"/></g></g><g><g><path d="m29.8449516 25.6573448v2.036274h-.1690311c-.0235844 0-.0471687 0-.070755-.0038872v-2.0284538c.0235863-.003933.0471706-.003933.070755-.003933z" fill="#ffa87a"/></g></g><g><g><g><path d="m37.4278259 32.0884895-1.3679771 4.6778412-2.057869 5.467907-2.0578938-5.467907-1.3640423-4.6739082v-.003933c.0039349 0 .0117817 0 .0157166-.0039368.3105621-.0432358.6211033-.0746651.947382-.0746651h4.921587c.318409 0 .6329079.0314293.9395103.0746651.0078698.0000001.0157395.0039368.0235863.0039368z" fill="#fff"/></g></g><g><g><path d="m37.4238892 32.0924225-1.3640404 4.6739082-2.0559006-1.4976845h-.0039368l-2.0559254 1.4976845-1.3640423-4.6739082c.0039349-.003933.0117817-.003933.0157166-.0078697.3105621-.0432358.6211033-.0746651.947382-.0746651h4.921587c.318409 0 .6329079.0314293.9395103.0746651.0078698.0039367.0118065.0039367.0196496.0078697z" fill="#d0f6ff"/></g></g><g><g><path d="m34.9631081 39.7302551-.9611283 2.5039826-.961132-2.5039826.664341-2.9049034-.5385437-.9513168.8333663-.6053887h.0039368l.8333664.6053887-.5385437.9513168z" fill="#ff3445"/></g></g></g><g><g><path d="m36.5098991 29.818573v2.5098763c0 1.3862228-1.1236839 2.5098763-2.5098915 2.5098763-.6931114 0-1.3205872-.2809067-1.7747803-.735096-.4541912-.4541931-.7351112-1.0816689-.7351112-1.7747803v-2.5098763z" fill="#ffc0a4"/></g></g><g><g><path d="m36.5098991 29.818573v1.8036232c-.5749664.4437103-1.2654495.7430115-2.01894.8375244-.1916656.0262451-.383316.0367584-.5749664.0367584-.8978844 0-1.7327805-.2730522-2.4258766-.7430115v-1.9348945z" fill="#ffa87a"/></g></g><g><g><path d="m37.999279 24.6012878v3.4137402c0 2.0781651-1.4854813 3.9207726-3.5422859 4.1850109-2.4852886.3213387-4.6135368-1.6140251-4.6135368-4.0422115v-3.5565395c0-.4506321.0747128-.8852386.2102871-1.2900848.0381393-.1138954.1486988-.1882915.2688122-.1882915h5.0771446c.4427795 0 .8784103-.1213512 1.2640877-.3499336l.4238319-.2597466c.1328201-.081398.3112755-.0427704.3883781.0925884.3359375.5897635.5232811 1.2677974.5232811 1.995468z" fill="#ffc0a4"/></g></g></g><g><g><path d="m40.9040947 37.3486366v.7022018c0 .0535889-.0428581.0964813-.0964813.0964813h-3.4681129c-.0536232 0-.0964813-.0428925-.0964813-.0964813v-.7022018c0-.0535889.0428581-.0911179.0964813-.0911179h3.4681129c.0536232.0000001.0964813.0375291.0964813.0911179z" fill="#20273a"/></g></g></g><g><g><g><path d="m46.7356834 45.8648186c0 .2674675-.2188492.4911842-.4911842.4911842h-24.4889965c-.272337 0-.4911842-.2237167-.4911842-.4911842 0-.2723351.2188473-.4911842.4911842-.4911842h24.4889965c.2723351-.0000001.4911842.2188491.4911842.4911842z" fill="#8fc8f5"/></g></g><g><g><g><path d="m39.1122856 48.8324165c0 .2674675-.2188492.4911842-.4911842.4911842h-16.8655987c-.272337 0-.4911842-.2237167-.4911842-.4911842 0-.2723351.2188473-.4911842.4911842-.4911842h16.8655987c.272335 0 .4911842.2188492.4911842.4911842z" fill="#8fc8f5"/></g></g></g><g><g><g><path d="m42.8091965 48.8324165c0 .2674675-.2188454.4911842-.4911842.4911842h-1.583786c-.2723389 0-.4911842-.2237167-.4911842-.4911842 0-.2723351.2188454-.4911842.4911842-.4911842h1.583786c.2723388 0 .4911842.2188492.4911842.4911842z" fill="#8fc8f5"/></g></g></g></g><g opacity=".2"><g><path d="m53.3809166 56.599514c0 .7615051-8.7139091 1.3792343-19.459549 1.3792343s-19.4595509-.6177292-19.4595509-1.3792343c0-.7615585 8.7139091-1.3707657 19.4595509-1.3707657s19.459549.6092072 19.459549 1.3707657z"/></g></g></g></svg>